<svg width="16" height="16" viewBox="0 0 16 16" fill="none" xmlns="http://www.w3.org/2000/svg">
<path d="M13.0886 5.33132C13.0973 5.44799 13.0973 5.56399 13.0973 5.67999C13.0973 9.22999 10.3953 13.3207 5.45731 13.3207C3.93598 13.3207 2.52265 12.88 1.33331 12.1147C1.54931 12.1393 1.75731 12.148 1.98198 12.148C3.19064 12.1509 4.36508 11.7467 5.31598 11.0007C4.75559 10.9905 4.21236 10.8056 3.76214 10.4718C3.31191 10.138 2.97717 9.67192 2.80465 9.13866C2.97065 9.16332 3.13731 9.17999 3.31198 9.17999C3.55265 9.17999 3.79465 9.14666 4.01931 9.08866C3.41115 8.96586 2.8643 8.63622 2.47173 8.15578C2.07916 7.67534 1.86511 7.07375 1.86598 6.45332V6.41999C2.22398 6.61932 2.63931 6.74399 3.07931 6.76066C2.71071 6.51571 2.40846 6.18334 2.19954 5.79318C1.99062 5.40303 1.88152 4.96723 1.88198 4.52466C1.88198 4.02599 2.01465 3.56866 2.24731 3.16999C2.92207 4 3.76365 4.67903 4.71754 5.16309C5.67143 5.64716 6.71635 5.92547 7.78465 5.97999C7.74331 5.77999 7.71798 5.57266 7.71798 5.36466C7.7178 5.01196 7.78714 4.66269 7.92203 4.33682C8.05692 4.01094 8.25471 3.71484 8.5041 3.46545C8.7535 3.21606 9.04959 3.01826 9.37547 2.88337C9.70135 2.74849 10.0506 2.67915 10.4033 2.67932C11.1766 2.67932 11.8746 3.00332 12.3653 3.52732C12.9665 3.41107 13.543 3.1916 14.0693 2.87865C13.8689 3.4992 13.4492 4.02539 12.8886 4.35866C13.4218 4.29784 13.9429 4.15762 14.4346 3.94266C14.0674 4.47805 13.6123 4.94755 13.0886 5.33132Z" fill="black"/>
</svg>
