<svg width="598" height="276" viewBox="0 0 598 276" fill="none" xmlns="http://www.w3.org/2000/svg">
<path d="M85.328 272V261.536H87.424L89.28 266.656C89.3973 266.987 89.5093 267.328 89.616 267.68C89.7227 268.021 89.8347 268.363 89.952 268.704H90.016C90.1333 268.363 90.24 268.021 90.336 267.68C90.4427 267.328 90.5547 266.987 90.672 266.656L92.48 261.536H94.592V272H92.88V267.216C92.88 266.971 92.8853 266.704 92.896 266.416C92.9173 266.128 92.9387 265.84 92.96 265.552C92.9813 265.253 93.008 264.965 93.04 264.688C93.072 264.4 93.0987 264.133 93.12 263.888H93.056L92.208 266.32L90.496 271.024H89.392L87.664 266.32L86.832 263.888H86.768C86.7893 264.133 86.8107 264.4 86.832 264.688C86.864 264.965 86.8907 265.253 86.912 265.552C86.944 265.84 86.9653 266.128 86.976 266.416C86.9973 266.704 87.008 266.971 87.008 267.216V272H85.328ZM101.106 272.192C100.615 272.192 100.146 272.101 99.6979 271.92C99.2499 271.739 98.8499 271.472 98.4979 271.12C98.1565 270.768 97.8845 270.336 97.6819 269.824C97.4792 269.312 97.3779 268.731 97.3779 268.08C97.3779 267.429 97.4792 266.848 97.6819 266.336C97.8845 265.824 98.1565 265.392 98.4979 265.04C98.8499 264.688 99.2499 264.421 99.6979 264.24C100.146 264.048 100.615 263.952 101.106 263.952C101.597 263.952 102.066 264.048 102.514 264.24C102.973 264.421 103.373 264.688 103.714 265.04C104.055 265.392 104.327 265.824 104.53 266.336C104.743 266.848 104.85 267.429 104.85 268.08C104.85 268.731 104.743 269.312 104.53 269.824C104.327 270.336 104.055 270.768 103.714 271.12C103.373 271.472 102.973 271.739 102.514 271.92C102.066 272.101 101.597 272.192 101.106 272.192ZM101.106 270.688C101.682 270.688 102.135 270.453 102.466 269.984C102.797 269.504 102.962 268.869 102.962 268.08C102.962 267.28 102.797 266.645 102.466 266.176C102.135 265.696 101.682 265.456 101.106 265.456C100.53 265.456 100.077 265.696 99.7459 266.176C99.4259 266.645 99.2659 267.28 99.2659 268.08C99.2659 268.869 99.4259 269.504 99.7459 269.984C100.077 270.453 100.53 270.688 101.106 270.688ZM107.471 272V264.144H108.991L109.119 265.2H109.183C109.535 264.859 109.914 264.565 110.319 264.32C110.735 264.075 111.215 263.952 111.759 263.952C112.602 263.952 113.215 264.224 113.599 264.768C113.983 265.301 114.175 266.069 114.175 267.072V272H112.335V267.312C112.335 266.661 112.239 266.203 112.047 265.936C111.855 265.669 111.54 265.536 111.103 265.536C110.762 265.536 110.458 265.621 110.191 265.792C109.935 265.952 109.642 266.192 109.311 266.512V272H107.471Z" fill="#6B6B6B"/>
<path d="M169.44 272V263.104H166.416V261.536H174.32V263.104H171.296V272H169.44ZM178.335 272.192C177.493 272.192 176.879 271.925 176.495 271.392C176.111 270.848 175.919 270.075 175.919 269.072V264.144H177.759V268.832C177.759 269.483 177.855 269.941 178.047 270.208C178.239 270.475 178.549 270.608 178.975 270.608C179.317 270.608 179.615 270.523 179.871 270.352C180.138 270.181 180.421 269.904 180.719 269.52V264.144H182.559V272H181.055L180.911 270.848H180.863C180.522 271.253 180.149 271.579 179.743 271.824C179.349 272.069 178.879 272.192 178.335 272.192ZM189.05 272.192C188.506 272.192 187.999 272.101 187.53 271.92C187.061 271.728 186.65 271.456 186.298 271.104C185.946 270.752 185.669 270.325 185.466 269.824C185.274 269.312 185.178 268.731 185.178 268.08C185.178 267.44 185.279 266.864 185.482 266.352C185.685 265.84 185.951 265.408 186.282 265.056C186.623 264.704 187.013 264.432 187.45 264.24C187.887 264.048 188.335 263.952 188.794 263.952C189.327 263.952 189.797 264.043 190.202 264.224C190.607 264.405 190.943 264.661 191.21 264.992C191.487 265.323 191.695 265.717 191.834 266.176C191.973 266.635 192.042 267.136 192.042 267.68C192.042 267.861 192.031 268.032 192.01 268.192C191.999 268.352 191.983 268.48 191.962 268.576H186.97C187.055 269.28 187.301 269.824 187.706 270.208C188.122 270.581 188.65 270.768 189.29 270.768C189.631 270.768 189.946 270.72 190.234 270.624C190.533 270.517 190.826 270.373 191.114 270.192L191.738 271.344C191.365 271.589 190.949 271.792 190.49 271.952C190.031 272.112 189.551 272.192 189.05 272.192ZM186.954 267.328H190.442C190.442 266.72 190.309 266.245 190.042 265.904C189.786 265.552 189.386 265.376 188.842 265.376C188.373 265.376 187.962 265.541 187.61 265.872C187.258 266.203 187.039 266.688 186.954 267.328Z" fill="#6B6B6B"/>
<path d="M245.368 272L243.288 261.536H245.192L246.104 266.816C246.189 267.381 246.275 267.941 246.36 268.496C246.445 269.051 246.531 269.605 246.616 270.16H246.68C246.797 269.605 246.909 269.051 247.016 268.496C247.133 267.931 247.251 267.371 247.368 266.816L248.648 261.536H250.264L251.544 266.816C251.661 267.36 251.779 267.915 251.896 268.48C252.013 269.035 252.131 269.595 252.248 270.16H252.312C252.397 269.595 252.477 269.035 252.552 268.48C252.637 267.925 252.723 267.371 252.808 266.816L253.72 261.536H255.496L253.496 272H251.192L249.896 266.496C249.811 266.091 249.725 265.691 249.64 265.296C249.565 264.891 249.496 264.485 249.432 264.08H249.368C249.293 264.485 249.213 264.891 249.128 265.296C249.053 265.691 248.973 266.091 248.888 266.496L247.624 272H245.368ZM261.125 272.192C260.581 272.192 260.074 272.101 259.605 271.92C259.136 271.728 258.725 271.456 258.373 271.104C258.021 270.752 257.744 270.325 257.541 269.824C257.349 269.312 257.253 268.731 257.253 268.08C257.253 267.44 257.354 266.864 257.557 266.352C257.76 265.84 258.026 265.408 258.357 265.056C258.698 264.704 259.088 264.432 259.525 264.24C259.962 264.048 260.41 263.952 260.869 263.952C261.402 263.952 261.872 264.043 262.277 264.224C262.682 264.405 263.018 264.661 263.285 264.992C263.562 265.323 263.77 265.717 263.909 266.176C264.048 266.635 264.117 267.136 264.117 267.68C264.117 267.861 264.106 268.032 264.085 268.192C264.074 268.352 264.058 268.48 264.037 268.576H259.045C259.13 269.28 259.376 269.824 259.781 270.208C260.197 270.581 260.725 270.768 261.365 270.768C261.706 270.768 262.021 270.72 262.309 270.624C262.608 270.517 262.901 270.373 263.189 270.192L263.813 271.344C263.44 271.589 263.024 271.792 262.565 271.952C262.106 272.112 261.626 272.192 261.125 272.192ZM259.029 267.328H262.517C262.517 266.72 262.384 266.245 262.117 265.904C261.861 265.552 261.461 265.376 260.917 265.376C260.448 265.376 260.037 265.541 259.685 265.872C259.333 266.203 259.114 266.688 259.029 267.328ZM269.426 272.192C268.434 272.192 267.645 271.835 267.058 271.12C266.482 270.395 266.194 269.381 266.194 268.08C266.194 267.44 266.285 266.864 266.466 266.352C266.658 265.84 266.909 265.408 267.218 265.056C267.528 264.704 267.88 264.432 268.274 264.24C268.68 264.048 269.096 263.952 269.522 263.952C269.97 263.952 270.349 264.032 270.658 264.192C270.968 264.341 271.277 264.549 271.586 264.816L271.522 263.552V260.704H273.362V272H271.842L271.714 271.152H271.65C271.362 271.44 271.026 271.685 270.642 271.888C270.258 272.091 269.853 272.192 269.426 272.192ZM269.874 270.672C270.461 270.672 271.01 270.379 271.522 269.792V266.128C271.245 265.883 270.973 265.712 270.706 265.616C270.45 265.52 270.189 265.472 269.922 265.472C269.41 265.472 268.978 265.696 268.626 266.144C268.274 266.592 268.098 267.232 268.098 268.064C268.098 268.917 268.248 269.568 268.546 270.016C268.856 270.453 269.298 270.672 269.874 270.672Z" fill="#6B6B6B"/>
<path d="M328.44 272V263.104H325.416V261.536H333.32V263.104H330.296V272H328.44ZM335.702 272V260.704H337.542V263.616L337.478 265.136C337.809 264.827 338.172 264.555 338.566 264.32C338.972 264.075 339.446 263.952 339.99 263.952C340.833 263.952 341.446 264.224 341.83 264.768C342.214 265.301 342.406 266.069 342.406 267.072V272H340.566V267.312C340.566 266.661 340.47 266.203 340.278 265.936C340.086 265.669 339.772 265.536 339.334 265.536C338.993 265.536 338.689 265.621 338.422 265.792C338.166 265.952 337.873 266.192 337.542 266.512V272H335.702ZM347.76 272.192C346.918 272.192 346.304 271.925 345.92 271.392C345.536 270.848 345.344 270.075 345.344 269.072V264.144H347.184V268.832C347.184 269.483 347.28 269.941 347.472 270.208C347.664 270.475 347.974 270.608 348.4 270.608C348.742 270.608 349.04 270.523 349.296 270.352C349.563 270.181 349.846 269.904 350.144 269.52V264.144H351.984V272H350.48L350.336 270.848H350.288C349.947 271.253 349.574 271.579 349.168 271.824C348.774 272.069 348.304 272.192 347.76 272.192ZM355.115 272V264.144H356.635L356.763 265.536H356.827C357.104 265.024 357.44 264.635 357.835 264.368C358.23 264.091 358.635 263.952 359.051 263.952C359.424 263.952 359.723 264.005 359.947 264.112L359.627 265.712C359.488 265.669 359.36 265.637 359.243 265.616C359.126 265.595 358.982 265.584 358.811 265.584C358.502 265.584 358.176 265.707 357.835 265.952C357.494 266.187 357.2 266.603 356.955 267.2V272H355.115Z" fill="#6B6B6B"/>
<path d="M411.328 272V261.536H417.648V263.104H413.184V266.064H416.992V267.632H413.184V272H411.328ZM419.812 272V264.144H421.332L421.46 265.536H421.524C421.801 265.024 422.137 264.635 422.532 264.368C422.926 264.091 423.332 263.952 423.748 263.952C424.121 263.952 424.42 264.005 424.644 264.112L424.324 265.712C424.185 265.669 424.057 265.637 423.94 265.616C423.822 265.595 423.678 265.584 423.508 265.584C423.198 265.584 422.873 265.707 422.532 265.952C422.19 266.187 421.897 266.603 421.652 267.2V272H419.812ZM426.581 272V264.144H428.421V272H426.581ZM427.509 262.768C427.178 262.768 426.906 262.672 426.693 262.48C426.479 262.288 426.373 262.037 426.373 261.728C426.373 261.419 426.479 261.168 426.693 260.976C426.906 260.773 427.178 260.672 427.509 260.672C427.839 260.672 428.111 260.773 428.325 260.976C428.538 261.168 428.645 261.419 428.645 261.728C428.645 262.037 428.538 262.288 428.325 262.48C428.111 262.672 427.839 262.768 427.509 262.768Z" fill="#6B6B6B"/>
<path d="M484.384 272.192C483.68 272.192 482.997 272.059 482.336 271.792C481.685 271.525 481.109 271.147 480.608 270.656L481.696 269.392C482.069 269.744 482.496 270.032 482.976 270.256C483.456 270.469 483.936 270.576 484.416 270.576C485.013 270.576 485.467 270.453 485.776 270.208C486.085 269.963 486.24 269.637 486.24 269.232C486.24 269.019 486.197 268.837 486.112 268.688C486.037 268.539 485.925 268.411 485.776 268.304C485.637 268.187 485.467 268.08 485.264 267.984C485.072 267.888 484.859 267.792 484.624 267.696L483.184 267.072C482.928 266.965 482.672 266.832 482.416 266.672C482.171 266.512 481.947 266.32 481.744 266.096C481.541 265.872 481.376 265.611 481.248 265.312C481.131 265.013 481.072 264.672 481.072 264.288C481.072 263.872 481.157 263.488 481.328 263.136C481.509 262.773 481.755 262.459 482.064 262.192C482.373 261.925 482.741 261.717 483.168 261.568C483.605 261.419 484.08 261.344 484.592 261.344C485.2 261.344 485.787 261.467 486.352 261.712C486.917 261.947 487.403 262.267 487.808 262.672L486.864 263.856C486.523 263.579 486.171 263.36 485.808 263.2C485.445 263.04 485.04 262.96 484.592 262.96C484.091 262.96 483.691 263.072 483.392 263.296C483.093 263.509 482.944 263.808 482.944 264.192C482.944 264.395 482.987 264.571 483.072 264.72C483.168 264.859 483.291 264.987 483.44 265.104C483.6 265.211 483.781 265.312 483.984 265.408C484.187 265.493 484.395 265.579 484.608 265.664L486.032 266.256C486.341 266.384 486.624 266.533 486.88 266.704C487.136 266.875 487.355 267.072 487.536 267.296C487.728 267.52 487.877 267.781 487.984 268.08C488.091 268.368 488.144 268.704 488.144 269.088C488.144 269.515 488.059 269.915 487.888 270.288C487.717 270.661 487.467 270.992 487.136 271.28C486.816 271.557 486.421 271.781 485.952 271.952C485.493 272.112 484.971 272.192 484.384 272.192ZM492.591 272.192C491.897 272.192 491.337 271.984 490.911 271.568C490.484 271.141 490.271 270.581 490.271 269.888C490.271 269.472 490.356 269.104 490.527 268.784C490.708 268.453 490.985 268.171 491.359 267.936C491.743 267.701 492.223 267.504 492.799 267.344C493.385 267.184 494.084 267.061 494.895 266.976C494.884 266.773 494.852 266.581 494.799 266.4C494.756 266.208 494.676 266.043 494.559 265.904C494.452 265.755 494.308 265.643 494.127 265.568C493.945 265.483 493.721 265.44 493.455 265.44C493.071 265.44 492.692 265.515 492.319 265.664C491.956 265.813 491.599 265.995 491.247 266.208L490.575 264.976C491.012 264.699 491.503 264.459 492.047 264.256C492.591 264.053 493.177 263.952 493.807 263.952C494.788 263.952 495.519 264.245 495.999 264.832C496.489 265.408 496.735 266.245 496.735 267.344V272H495.215L495.087 271.136H495.023C494.671 271.435 494.292 271.685 493.887 271.888C493.492 272.091 493.06 272.192 492.591 272.192ZM493.183 270.752C493.503 270.752 493.791 270.677 494.047 270.528C494.313 270.379 494.596 270.165 494.895 269.888V268.128C494.361 268.192 493.913 268.277 493.551 268.384C493.188 268.491 492.895 268.613 492.671 268.752C492.447 268.88 492.287 269.029 492.191 269.2C492.095 269.371 492.047 269.552 492.047 269.744C492.047 270.096 492.153 270.352 492.367 270.512C492.58 270.672 492.852 270.752 493.183 270.752ZM502.255 272.192C501.796 272.192 501.407 272.123 501.087 271.984C500.777 271.845 500.521 271.653 500.319 271.408C500.127 271.152 499.983 270.853 499.887 270.512C499.801 270.16 499.759 269.771 499.759 269.344V265.6H498.639V264.224L499.855 264.144L500.079 262H501.615V264.144H503.615V265.6H501.615V269.344C501.615 270.261 501.983 270.72 502.719 270.72C502.857 270.72 502.996 270.704 503.135 270.672C503.284 270.64 503.417 270.597 503.535 270.544L503.855 271.904C503.641 271.979 503.396 272.043 503.119 272.096C502.852 272.16 502.564 272.192 502.255 272.192Z" fill="#6B6B6B"/>
<path d="M559.384 272.192C558.68 272.192 557.997 272.059 557.336 271.792C556.685 271.525 556.109 271.147 555.608 270.656L556.696 269.392C557.069 269.744 557.496 270.032 557.976 270.256C558.456 270.469 558.936 270.576 559.416 270.576C560.013 270.576 560.467 270.453 560.776 270.208C561.085 269.963 561.24 269.637 561.24 269.232C561.24 269.019 561.197 268.837 561.112 268.688C561.037 268.539 560.925 268.411 560.776 268.304C560.637 268.187 560.467 268.08 560.264 267.984C560.072 267.888 559.859 267.792 559.624 267.696L558.184 267.072C557.928 266.965 557.672 266.832 557.416 266.672C557.171 266.512 556.947 266.32 556.744 266.096C556.541 265.872 556.376 265.611 556.248 265.312C556.131 265.013 556.072 264.672 556.072 264.288C556.072 263.872 556.157 263.488 556.328 263.136C556.509 262.773 556.755 262.459 557.064 262.192C557.373 261.925 557.741 261.717 558.168 261.568C558.605 261.419 559.08 261.344 559.592 261.344C560.2 261.344 560.787 261.467 561.352 261.712C561.917 261.947 562.403 262.267 562.808 262.672L561.864 263.856C561.523 263.579 561.171 263.36 560.808 263.2C560.445 263.04 560.04 262.96 559.592 262.96C559.091 262.96 558.691 263.072 558.392 263.296C558.093 263.509 557.944 263.808 557.944 264.192C557.944 264.395 557.987 264.571 558.072 264.72C558.168 264.859 558.291 264.987 558.44 265.104C558.6 265.211 558.781 265.312 558.984 265.408C559.187 265.493 559.395 265.579 559.608 265.664L561.032 266.256C561.341 266.384 561.624 266.533 561.88 266.704C562.136 266.875 562.355 267.072 562.536 267.296C562.728 267.52 562.877 267.781 562.984 268.08C563.091 268.368 563.144 268.704 563.144 269.088C563.144 269.515 563.059 269.915 562.888 270.288C562.717 270.661 562.467 270.992 562.136 271.28C561.816 271.557 561.421 271.781 560.952 271.952C560.493 272.112 559.971 272.192 559.384 272.192ZM568.023 272.192C567.18 272.192 566.567 271.925 566.183 271.392C565.799 270.848 565.607 270.075 565.607 269.072V264.144H567.447V268.832C567.447 269.483 567.543 269.941 567.735 270.208C567.927 270.475 568.236 270.608 568.663 270.608C569.004 270.608 569.303 270.523 569.559 270.352C569.825 270.181 570.108 269.904 570.407 269.52V264.144H572.247V272H570.743L570.599 270.848H570.551C570.209 271.253 569.836 271.579 569.431 271.824C569.036 272.069 568.567 272.192 568.023 272.192ZM575.377 272V264.144H576.897L577.025 265.2H577.089C577.441 264.859 577.82 264.565 578.225 264.32C578.641 264.075 579.121 263.952 579.665 263.952C580.508 263.952 581.121 264.224 581.505 264.768C581.889 265.301 582.081 266.069 582.081 267.072V272H580.241V267.312C580.241 266.661 580.145 266.203 579.953 265.936C579.761 265.669 579.447 265.536 579.009 265.536C578.668 265.536 578.364 265.621 578.097 265.792C577.841 265.952 577.548 266.192 577.217 266.512V272H575.377Z" fill="#6B6B6B"/>
<line x1="52.25" y1="1.09278e-08" x2="52.25" y2="245" stroke="#6B6B6B" stroke-width="0.5"/>
<line x1="52" y1="244.75" x2="598" y2="244.75" stroke="#6B6B6B" stroke-width="0.5"/>
<path d="M31.096 241.192C30.0293 241.192 29.1867 240.739 28.568 239.832C27.9493 238.915 27.64 237.592 27.64 235.864C27.64 234.136 27.9493 232.835 28.568 231.96C29.1867 231.075 30.0293 230.632 31.096 230.632C32.1627 230.632 33.0053 231.075 33.624 231.96C34.2427 232.845 34.552 234.147 34.552 235.864C34.552 237.592 34.2427 238.915 33.624 239.832C33.0053 240.739 32.1627 241.192 31.096 241.192ZM31.096 239.752C31.3413 239.752 31.5653 239.688 31.768 239.56C31.9813 239.421 32.1627 239.197 32.312 238.888C32.4613 238.579 32.5787 238.179 32.664 237.688C32.7493 237.197 32.792 236.589 32.792 235.864C32.792 235.149 32.7493 234.552 32.664 234.072C32.5787 233.581 32.4613 233.187 32.312 232.888C32.1627 232.589 31.9813 232.381 31.768 232.264C31.5653 232.136 31.3413 232.072 31.096 232.072C30.8507 232.072 30.6213 232.136 30.408 232.264C30.2053 232.381 30.0293 232.589 29.88 232.888C29.7307 233.187 29.6133 233.581 29.528 234.072C29.4427 234.552 29.4 235.149 29.4 235.864C29.4 236.589 29.4427 237.197 29.528 237.688C29.6133 238.179 29.7307 238.579 29.88 238.888C30.0293 239.197 30.2053 239.421 30.408 239.56C30.6213 239.688 30.8507 239.752 31.096 239.752Z" fill="#6B6B6B"/>
<path d="M10.856 191.192C10.0347 191.192 9.34133 191.053 8.776 190.776C8.22133 190.488 7.75733 190.157 7.384 189.784L8.232 188.6C8.54133 188.888 8.888 189.144 9.272 189.368C9.656 189.581 10.104 189.688 10.616 189.688C11.192 189.688 11.6613 189.517 12.024 189.176C12.3973 188.835 12.584 188.355 12.584 187.736C12.584 187.128 12.4133 186.659 12.072 186.328C11.7307 185.997 11.2773 185.832 10.712 185.832C10.3813 185.832 10.104 185.88 9.88 185.976C9.656 186.061 9.38933 186.205 9.08 186.408L8.2 185.848L8.504 180.824H13.944V182.376H10.104L9.896 184.84C10.1093 184.733 10.3173 184.653 10.52 184.6C10.7333 184.536 10.9733 184.504 11.24 184.504C11.6773 184.504 12.088 184.568 12.472 184.696C12.8667 184.824 13.208 185.021 13.496 185.288C13.784 185.544 14.0133 185.875 14.184 186.28C14.3547 186.675 14.44 187.144 14.44 187.688C14.44 188.243 14.3387 188.739 14.136 189.176C13.944 189.613 13.6827 189.981 13.352 190.28C13.0213 190.579 12.6373 190.808 12.2 190.968C11.7733 191.117 11.3253 191.192 10.856 191.192ZM20.0991 191.192C19.0325 191.192 18.1898 190.739 17.5711 189.832C16.9525 188.915 16.6431 187.592 16.6431 185.864C16.6431 184.136 16.9525 182.835 17.5711 181.96C18.1898 181.075 19.0325 180.632 20.0991 180.632C21.1658 180.632 22.0085 181.075 22.6271 181.96C23.2458 182.845 23.5551 184.147 23.5551 185.864C23.5551 187.592 23.2458 188.915 22.6271 189.832C22.0085 190.739 21.1658 191.192 20.0991 191.192ZM20.0991 189.752C20.3445 189.752 20.5685 189.688 20.7711 189.56C20.9845 189.421 21.1658 189.197 21.3151 188.888C21.4645 188.579 21.5818 188.179 21.6671 187.688C21.7525 187.197 21.7951 186.589 21.7951 185.864C21.7951 185.149 21.7525 184.552 21.6671 184.072C21.5818 183.581 21.4645 183.187 21.3151 182.888C21.1658 182.589 20.9845 182.381 20.7711 182.264C20.5685 182.136 20.3445 182.072 20.0991 182.072C19.8538 182.072 19.6245 182.136 19.4111 182.264C19.2085 182.381 19.0325 182.589 18.8831 182.888C18.7338 183.187 18.6165 183.581 18.5311 184.072C18.4458 184.552 18.4031 185.149 18.4031 185.864C18.4031 186.589 18.4458 187.197 18.5311 187.688C18.6165 188.179 18.7338 188.579 18.8831 188.888C19.0325 189.197 19.2085 189.421 19.4111 189.56C19.6245 189.688 19.8538 189.752 20.0991 189.752ZM29.1023 191.192C28.0356 191.192 27.1929 190.739 26.5743 189.832C25.9556 188.915 25.6463 187.592 25.6463 185.864C25.6463 184.136 25.9556 182.835 26.5743 181.96C27.1929 181.075 28.0356 180.632 29.1023 180.632C30.1689 180.632 31.0116 181.075 31.6303 181.96C32.2489 182.845 32.5583 184.147 32.5583 185.864C32.5583 187.592 32.2489 188.915 31.6303 189.832C31.0116 190.739 30.1689 191.192 29.1023 191.192ZM29.1023 189.752C29.3476 189.752 29.5716 189.688 29.7743 189.56C29.9876 189.421 30.1689 189.197 30.3183 188.888C30.4676 188.579 30.5849 188.179 30.6703 187.688C30.7556 187.197 30.7983 186.589 30.7983 185.864C30.7983 185.149 30.7556 184.552 30.6703 184.072C30.5849 183.581 30.4676 183.187 30.3183 182.888C30.1689 182.589 29.9876 182.381 29.7743 182.264C29.5716 182.136 29.3476 182.072 29.1023 182.072C28.8569 182.072 28.6276 182.136 28.4143 182.264C28.2116 182.381 28.0356 182.589 27.8863 182.888C27.7369 183.187 27.6196 183.581 27.5343 184.072C27.4489 184.552 27.4063 185.149 27.4063 185.864C27.4063 186.589 27.4489 187.197 27.5343 187.688C27.6196 188.179 27.7369 188.579 27.8863 188.888C28.0356 189.197 28.2116 189.421 28.4143 189.56C28.6276 189.688 28.8569 189.752 29.1023 189.752Z" fill="#6B6B6B"/>
<path d="M1.184 141V139.496H3.456V132.808H1.584V131.656C2.096 131.56 2.53333 131.448 2.896 131.32C3.26933 131.181 3.616 131.016 3.936 130.824H5.312V139.496H7.312V141H1.184ZM13.0991 141.192C12.0325 141.192 11.1898 140.739 10.5711 139.832C9.95246 138.915 9.64313 137.592 9.64313 135.864C9.64313 134.136 9.95246 132.835 10.5711 131.96C11.1898 131.075 12.0325 130.632 13.0991 130.632C14.1658 130.632 15.0085 131.075 15.6271 131.96C16.2458 132.845 16.5551 134.147 16.5551 135.864C16.5551 137.592 16.2458 138.915 15.6271 139.832C15.0085 140.739 14.1658 141.192 13.0991 141.192ZM13.0991 139.752C13.3445 139.752 13.5685 139.688 13.7711 139.56C13.9845 139.421 14.1658 139.197 14.3151 138.888C14.4645 138.579 14.5818 138.179 14.6671 137.688C14.7525 137.197 14.7951 136.589 14.7951 135.864C14.7951 135.149 14.7525 134.552 14.6671 134.072C14.5818 133.581 14.4645 133.187 14.3151 132.888C14.1658 132.589 13.9845 132.381 13.7711 132.264C13.5685 132.136 13.3445 132.072 13.0991 132.072C12.8538 132.072 12.6245 132.136 12.4111 132.264C12.2085 132.381 12.0325 132.589 11.8831 132.888C11.7338 133.187 11.6165 133.581 11.5311 134.072C11.4458 134.552 11.4031 135.149 11.4031 135.864C11.4031 136.589 11.4458 137.197 11.5311 137.688C11.6165 138.179 11.7338 138.579 11.8831 138.888C12.0325 139.197 12.2085 139.421 12.4111 139.56C12.6245 139.688 12.8538 139.752 13.0991 139.752ZM22.1023 141.192C21.0356 141.192 20.1929 140.739 19.5743 139.832C18.9556 138.915 18.6463 137.592 18.6463 135.864C18.6463 134.136 18.9556 132.835 19.5743 131.96C20.1929 131.075 21.0356 130.632 22.1023 130.632C23.1689 130.632 24.0116 131.075 24.6303 131.96C25.2489 132.845 25.5583 134.147 25.5583 135.864C25.5583 137.592 25.2489 138.915 24.6303 139.832C24.0116 140.739 23.1689 141.192 22.1023 141.192ZM22.1023 139.752C22.3476 139.752 22.5716 139.688 22.7743 139.56C22.9876 139.421 23.1689 139.197 23.3183 138.888C23.4676 138.579 23.5849 138.179 23.6703 137.688C23.7556 137.197 23.7983 136.589 23.7983 135.864C23.7983 135.149 23.7556 134.552 23.6703 134.072C23.5849 133.581 23.4676 133.187 23.3183 132.888C23.1689 132.589 22.9876 132.381 22.7743 132.264C22.5716 132.136 22.3476 132.072 22.1023 132.072C21.8569 132.072 21.6276 132.136 21.4143 132.264C21.2116 132.381 21.0356 132.589 20.8863 132.888C20.7369 133.187 20.6196 133.581 20.5343 134.072C20.4489 134.552 20.4063 135.149 20.4063 135.864C20.4063 136.589 20.4489 137.197 20.5343 137.688C20.6196 138.179 20.7369 138.579 20.8863 138.888C21.0356 139.197 21.2116 139.421 21.4143 139.56C21.6276 139.688 21.8569 139.752 22.1023 139.752ZM31.1054 141.192C30.0387 141.192 29.196 140.739 28.5774 139.832C27.9587 138.915 27.6494 137.592 27.6494 135.864C27.6494 134.136 27.9587 132.835 28.5774 131.96C29.196 131.075 30.0387 130.632 31.1054 130.632C32.172 130.632 33.0147 131.075 33.6334 131.96C34.252 132.845 34.5614 134.147 34.5614 135.864C34.5614 137.592 34.252 138.915 33.6334 139.832C33.0147 140.739 32.172 141.192 31.1054 141.192ZM31.1054 139.752C31.3507 139.752 31.5747 139.688 31.7774 139.56C31.9907 139.421 32.172 139.197 32.3214 138.888C32.4707 138.579 32.588 138.179 32.6734 137.688C32.7587 137.197 32.8014 136.589 32.8014 135.864C32.8014 135.149 32.7587 134.552 32.6734 134.072C32.588 133.581 32.4707 133.187 32.3214 132.888C32.172 132.589 31.9907 132.381 31.7774 132.264C31.5747 132.136 31.3507 132.072 31.1054 132.072C30.86 132.072 30.6307 132.136 30.4174 132.264C30.2147 132.381 30.0387 132.589 29.8894 132.888C29.74 133.187 29.6227 133.581 29.5374 134.072C29.452 134.552 29.4094 135.149 29.4094 135.864C29.4094 136.589 29.452 137.197 29.5374 137.688C29.6227 138.179 29.74 138.579 29.8894 138.888C30.0387 139.197 30.2147 139.421 30.4174 139.56C30.6307 139.688 30.86 139.752 31.1054 139.752Z" fill="#6B6B6B"/>
<path d="M1.184 91V89.496H3.456V82.808H1.584V81.656C2.096 81.56 2.53333 81.448 2.896 81.32C3.26933 81.1813 3.616 81.016 3.936 80.824H5.312V89.496H7.312V91H1.184ZM12.8591 91.192C12.0378 91.192 11.3445 91.0533 10.7791 90.776C10.2245 90.488 9.76046 90.1573 9.38713 89.784L10.2351 88.6C10.5445 88.888 10.8911 89.144 11.2751 89.368C11.6591 89.5813 12.1071 89.688 12.6191 89.688C13.1951 89.688 13.6645 89.5173 14.0271 89.176C14.4005 88.8347 14.5871 88.3547 14.5871 87.736C14.5871 87.128 14.4165 86.6587 14.0751 86.328C13.7338 85.9973 13.2805 85.832 12.7151 85.832C12.3845 85.832 12.1071 85.88 11.8831 85.976C11.6591 86.0613 11.3925 86.2053 11.0831 86.408L10.2031 85.848L10.5071 80.824H15.9471V82.376H12.1071L11.8991 84.84C12.1125 84.7333 12.3205 84.6533 12.5231 84.6C12.7365 84.536 12.9765 84.504 13.2431 84.504C13.6805 84.504 14.0911 84.568 14.4751 84.696C14.8698 84.824 15.2111 85.0213 15.4991 85.288C15.7871 85.544 16.0165 85.8747 16.1871 86.28C16.3578 86.6747 16.4431 87.144 16.4431 87.688C16.4431 88.2427 16.3418 88.7387 16.1391 89.176C15.9471 89.6133 15.6858 89.9813 15.3551 90.28C15.0245 90.5787 14.6405 90.808 14.2031 90.968C13.7765 91.1173 13.3285 91.192 12.8591 91.192ZM22.1023 91.192C21.0356 91.192 20.1929 90.7387 19.5743 89.832C18.9556 88.9147 18.6463 87.592 18.6463 85.864C18.6463 84.136 18.9556 82.8347 19.5743 81.96C20.1929 81.0747 21.0356 80.632 22.1023 80.632C23.1689 80.632 24.0116 81.0747 24.6303 81.96C25.2489 82.8453 25.5583 84.1467 25.5583 85.864C25.5583 87.592 25.2489 88.9147 24.6303 89.832C24.0116 90.7387 23.1689 91.192 22.1023 91.192ZM22.1023 89.752C22.3476 89.752 22.5716 89.688 22.7743 89.56C22.9876 89.4213 23.1689 89.1973 23.3183 88.888C23.4676 88.5787 23.5849 88.1787 23.6703 87.688C23.7556 87.1973 23.7983 86.5893 23.7983 85.864C23.7983 85.1493 23.7556 84.552 23.6703 84.072C23.5849 83.5813 23.4676 83.1867 23.3183 82.888C23.1689 82.5893 22.9876 82.3813 22.7743 82.264C22.5716 82.136 22.3476 82.072 22.1023 82.072C21.8569 82.072 21.6276 82.136 21.4143 82.264C21.2116 82.3813 21.0356 82.5893 20.8863 82.888C20.7369 83.1867 20.6196 83.5813 20.5343 84.072C20.4489 84.552 20.4063 85.1493 20.4063 85.864C20.4063 86.5893 20.4489 87.1973 20.5343 87.688C20.6196 88.1787 20.7369 88.5787 20.8863 88.888C21.0356 89.1973 21.2116 89.4213 21.4143 89.56C21.6276 89.688 21.8569 89.752 22.1023 89.752ZM31.1054 91.192C30.0387 91.192 29.196 90.7387 28.5774 89.832C27.9587 88.9147 27.6494 87.592 27.6494 85.864C27.6494 84.136 27.9587 82.8347 28.5774 81.96C29.196 81.0747 30.0387 80.632 31.1054 80.632C32.172 80.632 33.0147 81.0747 33.6334 81.96C34.252 82.8453 34.5614 84.1467 34.5614 85.864C34.5614 87.592 34.252 88.9147 33.6334 89.832C33.0147 90.7387 32.172 91.192 31.1054 91.192ZM31.1054 89.752C31.3507 89.752 31.5747 89.688 31.7774 89.56C31.9907 89.4213 32.172 89.1973 32.3214 88.888C32.4707 88.5787 32.588 88.1787 32.6734 87.688C32.7587 87.1973 32.8014 86.5893 32.8014 85.864C32.8014 85.1493 32.7587 84.552 32.6734 84.072C32.588 83.5813 32.4707 83.1867 32.3214 82.888C32.172 82.5893 31.9907 82.3813 31.7774 82.264C31.5747 82.136 31.3507 82.072 31.1054 82.072C30.86 82.072 30.6307 82.136 30.4174 82.264C30.2147 82.3813 30.0387 82.5893 29.8894 82.888C29.74 83.1867 29.6227 83.5813 29.5374 84.072C29.452 84.552 29.4094 85.1493 29.4094 85.864C29.4094 86.5893 29.452 87.1973 29.5374 87.688C29.6227 88.1787 29.74 88.5787 29.8894 88.888C30.0387 89.1973 30.2147 89.4213 30.4174 89.56C30.6307 89.688 30.86 89.752 31.1054 89.752Z" fill="#6B6B6B"/>
<path d="M0.608 41V39.928C1.312 39.2453 1.94667 38.616 2.512 38.04C3.088 37.464 3.57333 36.9307 3.968 36.44C4.37333 35.9493 4.68267 35.4907 4.896 35.064C5.10933 34.6373 5.216 34.232 5.216 33.848C5.216 33.304 5.072 32.8773 4.784 32.568C4.496 32.248 4.08 32.088 3.536 32.088C3.14133 32.088 2.77867 32.2 2.448 32.424C2.128 32.648 1.82933 32.9147 1.552 33.224L0.528 32.2C0.997333 31.6987 1.47733 31.3147 1.968 31.048C2.46933 30.7707 3.072 30.632 3.776 30.632C4.26667 30.632 4.70933 30.7067 5.104 30.856C5.49867 31.0053 5.83467 31.2187 6.112 31.496C6.38933 31.7627 6.60267 32.088 6.752 32.472C6.912 32.856 6.992 33.2827 6.992 33.752C6.992 34.2 6.89067 34.6587 6.688 35.128C6.496 35.5867 6.22933 36.056 5.888 36.536C5.55733 37.0053 5.168 37.4907 4.72 37.992C4.272 38.4933 3.79733 39.0107 3.296 39.544C3.56267 39.5227 3.85067 39.5013 4.16 39.48C4.46933 39.448 4.74667 39.432 4.992 39.432H7.488V41H0.608ZM13.0991 41.192C12.0325 41.192 11.1898 40.7387 10.5711 39.832C9.95246 38.9147 9.64313 37.592 9.64313 35.864C9.64313 34.136 9.95246 32.8347 10.5711 31.96C11.1898 31.0747 12.0325 30.632 13.0991 30.632C14.1658 30.632 15.0085 31.0747 15.6271 31.96C16.2458 32.8453 16.5551 34.1467 16.5551 35.864C16.5551 37.592 16.2458 38.9147 15.6271 39.832C15.0085 40.7387 14.1658 41.192 13.0991 41.192ZM13.0991 39.752C13.3445 39.752 13.5685 39.688 13.7711 39.56C13.9845 39.4213 14.1658 39.1973 14.3151 38.888C14.4645 38.5787 14.5818 38.1787 14.6671 37.688C14.7525 37.1973 14.7951 36.5893 14.7951 35.864C14.7951 35.1493 14.7525 34.552 14.6671 34.072C14.5818 33.5813 14.4645 33.1867 14.3151 32.888C14.1658 32.5893 13.9845 32.3813 13.7711 32.264C13.5685 32.136 13.3445 32.072 13.0991 32.072C12.8538 32.072 12.6245 32.136 12.4111 32.264C12.2085 32.3813 12.0325 32.5893 11.8831 32.888C11.7338 33.1867 11.6165 33.5813 11.5311 34.072C11.4458 34.552 11.4031 35.1493 11.4031 35.864C11.4031 36.5893 11.4458 37.1973 11.5311 37.688C11.6165 38.1787 11.7338 38.5787 11.8831 38.888C12.0325 39.1973 12.2085 39.4213 12.4111 39.56C12.6245 39.688 12.8538 39.752 13.0991 39.752ZM22.1023 41.192C21.0356 41.192 20.1929 40.7387 19.5743 39.832C18.9556 38.9147 18.6463 37.592 18.6463 35.864C18.6463 34.136 18.9556 32.8347 19.5743 31.96C20.1929 31.0747 21.0356 30.632 22.1023 30.632C23.1689 30.632 24.0116 31.0747 24.6303 31.96C25.2489 32.8453 25.5583 34.1467 25.5583 35.864C25.5583 37.592 25.2489 38.9147 24.6303 39.832C24.0116 40.7387 23.1689 41.192 22.1023 41.192ZM22.1023 39.752C22.3476 39.752 22.5716 39.688 22.7743 39.56C22.9876 39.4213 23.1689 39.1973 23.3183 38.888C23.4676 38.5787 23.5849 38.1787 23.6703 37.688C23.7556 37.1973 23.7983 36.5893 23.7983 35.864C23.7983 35.1493 23.7556 34.552 23.6703 34.072C23.5849 33.5813 23.4676 33.1867 23.3183 32.888C23.1689 32.5893 22.9876 32.3813 22.7743 32.264C22.5716 32.136 22.3476 32.072 22.1023 32.072C21.8569 32.072 21.6276 32.136 21.4143 32.264C21.2116 32.3813 21.0356 32.5893 20.8863 32.888C20.7369 33.1867 20.6196 33.5813 20.5343 34.072C20.4489 34.552 20.4063 35.1493 20.4063 35.864C20.4063 36.5893 20.4489 37.1973 20.5343 37.688C20.6196 38.1787 20.7369 38.5787 20.8863 38.888C21.0356 39.1973 21.2116 39.4213 21.4143 39.56C21.6276 39.688 21.8569 39.752 22.1023 39.752ZM31.1054 41.192C30.0387 41.192 29.196 40.7387 28.5774 39.832C27.9587 38.9147 27.6494 37.592 27.6494 35.864C27.6494 34.136 27.9587 32.8347 28.5774 31.96C29.196 31.0747 30.0387 30.632 31.1054 30.632C32.172 30.632 33.0147 31.0747 33.6334 31.96C34.252 32.8453 34.5614 34.1467 34.5614 35.864C34.5614 37.592 34.252 38.9147 33.6334 39.832C33.0147 40.7387 32.172 41.192 31.1054 41.192ZM31.1054 39.752C31.3507 39.752 31.5747 39.688 31.7774 39.56C31.9907 39.4213 32.172 39.1973 32.3214 38.888C32.4707 38.5787 32.588 38.1787 32.6734 37.688C32.7587 37.1973 32.8014 36.5893 32.8014 35.864C32.8014 35.1493 32.7587 34.552 32.6734 34.072C32.588 33.5813 32.4707 33.1867 32.3214 32.888C32.172 32.5893 31.9907 32.3813 31.7774 32.264C31.5747 32.136 31.3507 32.072 31.1054 32.072C30.86 32.072 30.6307 32.136 30.4174 32.264C30.2147 32.3813 30.0387 32.5893 29.8894 32.888C29.74 33.1867 29.6227 33.5813 29.5374 34.072C29.452 34.552 29.4094 35.1493 29.4094 35.864C29.4094 36.5893 29.452 37.1973 29.5374 37.688C29.6227 38.1787 29.74 38.5787 29.8894 38.888C30.0387 39.1973 30.2147 39.4213 30.4174 39.56C30.6307 39.688 30.86 39.752 31.1054 39.752Z" fill="#6B6B6B"/>
<path d="M83 96C83 93.2386 85.2386 91 88 91H92C94.7614 91 97 93.2386 97 96V245H83V96Z" fill="#1984C0"/>
<path d="M99.0464 180C99.0464 177.239 101.285 175 104.046 175H108C110.761 175 113 177.239 113 180V245H99.0464V180Z" fill="#19C220"/>
<path d="M164 80C164 77.2386 166.239 75 169 75H173C175.761 75 178 77.2386 178 80V245H164V80Z" fill="#1984C0"/>
<path d="M180 158C180 155.239 182.239 153 185 153H189C191.761 153 194 155.239 194 158V245H180V158Z" fill="#19C220"/>
<path d="M245 135C245 132.239 247.239 130 250 130H253.953C256.715 130 258.953 132.239 258.953 135V245H245V135Z" fill="#1984C0"/>
<path d="M261 196C261 193.239 263.239 191 266 191H270C272.761 191 275 193.239 275 196V245H261V196Z" fill="#19C220"/>
<path d="M327 123C327 120.239 329.239 118 332 118H336C338.761 118 341 120.239 341 123V245H327V123Z" fill="#1984C0"/>
<path d="M343 208C343 205.239 345.239 203 348 203H352C354.761 203 357 205.239 357 208V245H343V208Z" fill="#19C220"/>
<path d="M404 96C404 93.2386 406.239 91 409 91H413C415.761 91 418 93.2386 418 96V245H404V96Z" fill="#1984C0"/>
<path d="M420 146C420 143.239 422.239 141 425 141H429C431.761 141 434 143.239 434 146V245H420V146Z" fill="#19C220"/>
<path d="M477 172C477 169.239 479.239 167 482 167H486C488.761 167 491 169.239 491 172V245H477V172Z" fill="#1984C0"/>
<path d="M493 217C493 214.239 495.239 212 498 212H502C504.761 212 507 214.239 507 217V245H493V217Z" fill="#19C220"/>
<path d="M554 158C554 155.239 556.239 153 559 153H563C565.761 153 568 155.239 568 158V245H554V158Z" fill="#1984C0"/>
<path d="M570.046 180C570.046 177.239 572.285 175 575.046 175H579C581.761 175 584 177.239 584 180V245H570.046V180Z" fill="#19C220"/>
</svg>
